# File created by Blade
# Date/Time:  Thu Sep 25 19:04:16 2014
# Frame Rate: 120.000 fps
#------------------------------------------------------
:FULLY-SPECIFIED
:DEGREES
518
root -3.619082 29.860353 -9.584902 53.830399 25.167098 -43.201914
Spine 17.680003 -20.754766 -38.249882
Head -52.893090 -14.728734 25.211482
LeftShoulder -5.296336 4.592852 38.759458
LeftArm 1.695326 -31.892344 -17.276046
LeftForeArm 11.492351 0.000000 24.648925
LeftHand -27.122968 -0.000000 16.484335
LeftHandThumb1 -26.253704 0.000000 33.147579
RightShoulder -19.469682 6.648147 -41.029071
RightArm -46.416100 -21.635893 65.551208
RightForeArm -10.996003 -0.000000 9.760819
RightHand -15.714817 -0.000000 11.344352
RightHandThumb1 -24.326973 -0.000000 -32.862282
LeftUpLeg -80.897099 57.639590 28.272507
LeftLeg -3.483959 -0.000000 0.000000
LeftFoot 13.769212 2.980555 -35.045577
LeftToeBase 8.063103 -0.000000 -0.000000
RightUpLeg -59.161356 8.017950 32.863653
RightLeg -2.233400 -0.000000 0.000000
RightFoot -0.065278 -13.893822 18.299497
RightToeBase 3.734128 -0.000000 -0.000000
519
root -3.616354 29.860824 -9.561763 53.720674 25.189080 -43.222163
Spine 17.696937 -20.808049 -38.269979
Head -52.823136 -14.692076 25.242620
LeftShoulder -5.315868 4.669603 38.782553
LeftArm 1.789414 -31.854817 -17.356622
LeftForeArm 11.390203 -0.000000 24.427659
LeftHand -27.025954 0.000000 16.403444
LeftHandThumb1 -26.253704 0.000000 33.147579
RightShoulder -19.510583 6.558199 -41.006881
RightArm -46.483544 -21.601032 65.582409
RightForeArm -10.960928 -0.000000 9.754161
RightHand -15.833400 -0.000000 11.473554
RightHandThumb1 -24.326973 -0.000000 -32.862282
LeftUpLeg -80.845133 57.626768 28.259453
LeftLeg -3.511590 -0.000000 0.000000
LeftFoot 13.840586 2.907044 -34.959482
LeftToeBase 8.238607 -0.000000 -0.000000
RightUpLeg -59.038524 7.972047 32.892107
RightLeg -2.232261 -0.000000 0.000000
RightFoot -0.073327 -13.942058 18.329471
RightToeBase 3.821600 -0.000000 -0.000000
520
root -3.611167 29.862132 -9.541893 53.646255 25.237635 -43.211260
Spine 17.740124 -20.884597 -38.271886
Head -52.824892 -14.672560 25.283923
LeftShoulder -5.313052 4.665606 38.776925
LeftArm 1.801317 -31.741452 -17.367007
LeftForeArm 11.267192 -0.000000 24.262444
LeftHand -27.008100 -0.000000 16.345098
LeftHandThumb1 -26.253704 0.000000 33.147579
RightShoulder -19.569459 6.511023 -41.012636
RightArm -46.545435 -21.476883 65.539205
RightForeArm -11.073913 -0.000000 9.698287
RightHand -15.722183 0.000000 11.726356
RightHandThumb1 -24.326973 -0.000000 -32.862282
LeftUpLeg -80.834481 57.568838 28.232870
LeftLeg -3.541585 -0.000000 0.000000
LeftFoot 13.901795 2.911680 -34.888297
LeftToeBase 8.402653 -0.000000 -0.000000
RightUpLeg -58.963792 7.925133 32.866077
RightLeg -2.233748 -0.000000 0.000000
RightFoot -0.067743 -14.049103 18.286517
RightToeBase 3.927673 -0.000000 -0.000000
521
root -3.607273 29.862046 -9.521499 53.575408 25.274488 -43.220504
Spine 17.749364 -20.953949 -38.263951
Head -52.822967 -14.688834 25.334953
LeftShoulder -5.331425 4.720058 38.759517
LeftArm 1.856822 -31.617733 -17.372594
LeftForeArm 11.106601 0.000000 24.103067
LeftHand -26.976659 -0.000000 16.206621
LeftHandThumb1 -26.253704 0.000000 33.147579
RightShoulder -19.627160 6.478492 -41.033945
RightArm -46.669942 -21.471590 65.611889
RightForeArm -11.063073 -0.000000 9.688199
RightHand -15.754707 -0.000000 11.730250
RightHandThumb1 -24.326973 -0.000000 -32.862282
LeftUpLeg -80.781890 57.543343 28.251666
LeftLeg -3.582797 -0.000000 0.000000
LeftFoot 13.983002 2.997182 -35.018071
LeftToeBase 8.393361 -0.000000 -0.000000
RightUpLeg -58.892686 7.892474 32.866273
RightLeg -2.215915 -0.000000 0.000000
RightFoot -0.080726 -14.113225 18.269702
RightToeBase 3.972215 -0.000000 -0.000000
522
root -3.606280 29.862584 -9.498504 53.491995 25.318435 -43.257025
Spine 17.758870 -21.034851 -38.246962
Head -52.821395 -14.713235 25.426843
LeftShoulder -5.414448 4.778167 38.765693
LeftArm 2.002220 -31.685895 -17.480554
LeftForeArm 11.139949 -0.000000 23.906804
LeftHand -26.860754 0.000000 15.992562
LeftHandThumb1 -26.253704 0.000000 33.147579
RightShoulder -19.669728 6.453721 -41.040783
RightArm -46.718838 -21.365389 65.550803
RightForeArm -11.186636 -0.000000 9.659295
RightHand -15.726913 -0.000000 11.641102
RightHandThumb1 -24.326973 -0.000000 -32.862282
LeftUpLeg -80.746429 57.541105 28.259959
LeftLeg -3.620160 -0.000000 0.000000
LeftFoot 14.043757 2.956062 -35.056017
LeftToeBase 8.600895 -0.000000 -0.000000
RightUpLeg -58.799148 7.859324 32.920220
RightLeg -2.207390 -0.000000 0.000000
RightFoot -0.060492 -14.158680 18.263583
RightToeBase 3.990997 -0.000000 -0.000000
523
root -3.604537 29.862585 -9.475828 53.430056 25.339443 -43.302801
Spine 17.718529 -21.087814 -38.238390
Head -52.770203 -14.750341 25.505968
LeftShoulder -5.452565 4.856286 38.779918
LeftArm 2.075809 -31.630672 -17.544673
LeftForeArm 11.097084 -0.000000 23.798116
LeftHand -26.810399 -0.000000 15.937217
LeftHandThumb1 -26.253704 0.000000 33.147579
RightShoulder -19.699979 6.380581 -41.011842
RightArm -46.788591 -21.306867 65.551301
RightForeArm -11.180780 -0.000000 9.666116
RightHand -15.690112 -0.000000 11.816790
RightHandThumb1 -24.326973 -0.000000 -32.862282
LeftUpLeg -80.717964 57.571447 28.253153
LeftLeg -3.666173 -0.000000 0.000000
LeftFoot 14.147613 2.963738 -35.222723
LeftToeBase 8.677471 -0.000000 -0.000000
RightUpLeg -58.724516 7.849875 32.972850
RightLeg -2.188685 -0.000000 0.000000
RightFoot -0.021713 -14.219354 18.222644
RightToeBase 3.960033 -0.000000 -0.000000
